# xmcd
#
# Track frame offsets: 
#        150
#        11732
#        23927
#        41285
#        62587
#        77445
#        100587
#        119507
#        131552
#        150120
#        163865
#        182262
#
# Disc length: 2683 seconds
#
# Revision: 4
# Processed by: cddbd v1.5.2PL0 Copyright (c) Steve Scherf et al.
# Submitted via: ExactAudioCopyFreeDBPlugin 1.0
#
DISCID=810a790c
DTITLE=Barrence Whitefield - Live Emulsified
DYEAR=1989
DGENRE=Rhythm and Blues
TTITLE0=Bloody Mary
TTITLE1=Rockin' the Mule in Kansas
TTITLE2=Madhouse
TTITLE3=Chillin'
TTITLE4=Big Mamou
TTITLE5=The Girl from Outer Space
TTITLE6=Living Proof
TTITLE7=Hi Fi Baby
TTITLE8=Lizzie Leaps In
TTITLE9=Is It True?
TTITLE10=Mama Get the Hammer
TTITLE11=Sadie Green
EXTD=YEAR: 1989 ID3G: 17
EXTT0=
EXTT1=
EXTT2=
EXTT3=
EXTT4=
EXTT5=
EXTT6=
EXTT7=
EXTT8=
EXTT9=
EXTT10=
EXTT11=
PLAYORDER=
